<svg id="Flat" height="512" viewBox="0 0 512 512" width="512" xmlns="http://www.w3.org/2000/svg"><path d="m304 328h24v32h-24z" fill="#f5cbaa"/><rect fill="#e74444" height="336" rx="16" width="208" x="120" y="24"/><path d="m232 24h48v336h-48z" fill="#6a7073"/><path d="m168 56h32v152h-32z" fill="#d9dbdd"/><path d="m392 311.059v176.941h-56a80 80 0 0 1 -80-80h.16l-51.9-76.805a32 32 0 0 1 8.6-44.43 32 32 0 0 1 44.43 8.6l46.71 64.635h24v-192l60.235 128a32 32 0 0 1 3.765 15.059z" fill="#f5cbaa"/></svg>