<?xml version="1.0"?>
<svg xmlns="http://www.w3.org/2000/svg" id="Flat" viewBox="0 0 512 512" width="512" height="512"><path d="M103.471,24.017A8.18,8.18,0,0,0,96,32.272V112H80V32.274a8.183,8.183,0,0,0-7.468-8.257A8,8,0,0,0,64,32v80H48V32.272a8.18,8.18,0,0,0-7.471-8.255A8,8,0,0,0,32,32V133.333a32,32,0,0,0,6.4,19.2L56,176H88l17.6-23.467a32,32,0,0,0,6.4-19.2V32A8,8,0,0,0,103.471,24.017Z" style="fill:#cfd1d3"/><path d="M56,176,48.009,471.484A16.168,16.168,0,0,0,64.358,488H79.642a16.168,16.168,0,0,0,16.349-16.516L88,176Z" style="fill:#e74444"/><path d="M160,240l-7.991,231.484A16.168,16.168,0,0,0,168.358,488h15.285a16.168,16.168,0,0,0,16.348-16.516L192,240Z" style="fill:#e74444"/><path d="M160,240V216l-32-8s8-184,64-184V240Z" style="fill:#cfd1d3"/><path d="M409.705,86.3A238.427,238.427,0,0,0,240,16a8,8,0,0,0-8,8V56a8,8,0,0,0,16,0V32.14a222.476,222.476,0,0,1,97.048,25.913L334.686,76a8,8,0,1,0,13.855,8L358.89,66.076a226.771,226.771,0,0,1,71.039,71.031L412,147.459a8,8,0,1,0,8,13.855l17.955-10.366A222.5,222.5,0,0,1,463.844,248H440a8,8,0,0,0,0,16h23.844a222.5,222.5,0,0,1-25.889,97.052L420,350.686a8,8,0,1,0-8,13.855l17.929,10.352a226.9,226.9,0,0,1-71.035,71.036l-9.966-17.262a8,8,0,0,0-13.858,8l9.981,17.288A222.5,222.5,0,0,1,248,479.844V456a8,8,0,0,0-16,0v32a8,8,0,0,0,8,8A240,240,0,0,0,409.705,86.3Z" style="fill:#cfd1d3"/><path d="M240,320h48a8,8,0,0,0,0-16H248V277.766l42.53-14.176A8,8,0,0,0,296,256V216a8,8,0,0,0-8-8H240a8,8,0,0,0,0,16h40v26.234L237.47,264.41A8,8,0,0,0,232,272v40A8,8,0,0,0,240,320Z" style="fill:#c2c5c6"/><path d="M320,208a8,8,0,0,0-8,8v40a8,8,0,0,0,8,8h40v48a8,8,0,0,0,16,0V264h8a8,8,0,0,0,0-16h-8V216a8,8,0,0,0-16,0v32H328V216A8,8,0,0,0,320,208Z" style="fill:#c2c5c6"/></svg>
