<svg id="e8a6e089-f0a2-4336-8fc5-733c88302415" xmlns="http://www.w3.org/2000/svg" viewBox="0 0 720.7 300.49"><defs><style>.cls-1{fill:#ff4b4b;}.cls-2{opacity:0.2;isolation:isolate;}.cls-3{fill:#3f3d56;}.cls-4{fill:#ff6584;}.cls-5{fill:#e6e6e6;}.cls-6{fill:#f9a825;}.cls-7{fill:#00bf71;}.cls-8{fill:none;stroke:#3f3d56;stroke-miterlimit:10;}</style></defs><title>error</title><circle class="cls-1" cx="355.2" cy="150.53" r="149.25"/><path class="cls-2" d="M444,351.2a108.95,108.95,0,1,1,77-31.91A108.95,108.95,0,0,1,444,351.2ZM444,140A102.23,102.23,0,1,0,546.23,242.25,102.33,102.33,0,0,0,444,140Z" transform="translate(-88.8 -91.72)"/><circle class="cls-3" cx="355.2" cy="150.53" r="105.58"/><path class="cls-4" d="M365.49,200a13.4,13.4,0,1,1,23.87-12.19v0l29.83,58.57a13.4,13.4,0,0,1-23.86,12.2l0,0Z" transform="translate(-88.8 -91.72)"/><path class="cls-2" d="M368.82,206.57l-1.38-2.7a77.21,77.21,0,0,1,23.88-12.16l1.38,2.7C383,196.42,374.79,200.15,368.82,206.57Z" transform="translate(-88.8 -91.72)"/><path class="cls-2" d="M375.24,219.19l-1.38-2.71a77.48,77.48,0,0,1,23.89-12.16l1.37,2.7C389.44,209,381.21,212.77,375.24,219.19Z" transform="translate(-88.8 -91.72)"/><path class="cls-2" d="M381.67,231.8l-1.38-2.7a77.21,77.21,0,0,1,23.88-12.16l1.38,2.7C395.87,221.66,387.64,225.39,381.67,231.8Z" transform="translate(-88.8 -91.72)"/><path class="cls-2" d="M388.09,244.42l-1.38-2.7a77.5,77.5,0,0,1,23.89-12.17l1.37,2.71C402.29,234.27,394.06,238,388.09,244.42Z" transform="translate(-88.8 -91.72)"/><path class="cls-2" d="M394.52,257l-1.38-2.71A77.43,77.43,0,0,1,417,242.17l1.38,2.7C408.72,246.89,400.49,250.62,394.52,257Z" transform="translate(-88.8 -91.72)"/><path class="cls-4" d="M343.11,222A13.4,13.4,0,1,1,367,209.79h0l29.83,58.58a13.4,13.4,0,0,1-23.88,12.16Z" transform="translate(-88.8 -91.72)"/><path class="cls-2" d="M346.44,228.5l-1.38-2.71a77.65,77.65,0,0,1,23.88-12.16l1.38,2.71C360.64,218.35,352.41,222.08,346.44,228.5Z" transform="translate(-88.8 -91.72)"/><path class="cls-2" d="M352.86,241.11l-1.37-2.7a77.32,77.32,0,0,1,23.88-12.16l1.37,2.7C367.07,231,358.83,234.7,352.86,241.11Z" transform="translate(-88.8 -91.72)"/><path class="cls-2" d="M359.29,253.73l-1.38-2.7a77.21,77.21,0,0,1,23.88-12.16l1.38,2.7C373.49,243.59,365.26,247.31,359.29,253.73Z" transform="translate(-88.8 -91.72)"/><path class="cls-2" d="M365.71,266.35l-1.37-2.71a77.54,77.54,0,0,1,23.88-12.16l1.37,2.71C379.92,256.2,371.68,259.93,365.71,266.35Z" transform="translate(-88.8 -91.72)"/><path class="cls-2" d="M372.14,279l-1.38-2.7a77.43,77.43,0,0,1,23.88-12.16l1.38,2.7C386.34,268.82,378.11,272.55,372.14,279Z" transform="translate(-88.8 -91.72)"/><path class="cls-5" d="M514.56,245.61h.09a16,16,0,0,0,15-10,52.31,52.31,0,1,0-69.69,28.66,15.85,15.85,0,0,0,17.6-3.27A52.2,52.2,0,0,1,514.56,245.61Z" transform="translate(-88.8 -91.72)"/><circle class="cls-6" cx="398.88" cy="120.77" r="17.28"/><circle class="cls-3" cx="361.33" cy="116.8" r="2.04"/><circle class="cls-3" cx="294.14" cy="118.72" r="2.04"/><circle class="cls-3" cx="372.17" cy="95.7" r="2.04"/><circle class="cls-3" cx="372.12" cy="154.37" r="2.04"/><circle class="cls-3" cx="412.43" cy="91.5" r="2.04"/><circle class="cls-3" cx="280.93" cy="147.17" r="2.04"/><circle class="cls-3" cx="295.81" cy="176.44" r="2.04"/><circle class="cls-4" cx="389.28" cy="180.28" r="7.68"/><path class="cls-2" d="M483.84,272.49a5.76,5.76,0,0,1-11.52,0" transform="translate(-88.8 -91.72)"/><path class="cls-2" d="M472.32,271.53a5.76,5.76,0,0,1,11.52,0" transform="translate(-88.8 -91.72)"/><ellipse class="cls-4" cx="386.4" cy="177.64" rx="0.48" ry="0.72"/><ellipse class="cls-4" cx="389.28" cy="176.68" rx="0.48" ry="0.72"/><ellipse class="cls-4" cx="389.28" cy="182.92" rx="0.48" ry="0.72"/><ellipse class="cls-4" cx="392.16" cy="179.08" rx="0.48" ry="0.72"/><ellipse class="cls-4" cx="391.68" cy="184.36" rx="0.48" ry="0.72"/><ellipse class="cls-4" cx="385.92" cy="181.96" rx="0.48" ry="0.72"/><circle class="cls-4" cx="404.64" cy="159.65" r="7.68"/><path class="cls-2" d="M499.2,251.85a5.76,5.76,0,1,1-11.52,0" transform="translate(-88.8 -91.72)"/><path class="cls-2" d="M487.68,250.89a5.76,5.76,0,0,1,11.52,0" transform="translate(-88.8 -91.72)"/><ellipse class="cls-4" cx="401.76" cy="157.01" rx="0.48" ry="0.72"/><ellipse class="cls-4" cx="404.64" cy="156.05" rx="0.48" ry="0.72"/><ellipse class="cls-4" cx="404.64" cy="162.29" rx="0.48" ry="0.72"/><ellipse class="cls-4" cx="407.51" cy="158.45" rx="0.48" ry="0.72"/><ellipse class="cls-4" cx="407.03" cy="163.73" rx="0.48" ry="0.72"/><ellipse class="cls-4" cx="401.28" cy="161.33" rx="0.48" ry="0.72"/><circle class="cls-1" cx="419.99" cy="170.21" r="7.68"/><path class="cls-2" d="M514.56,262.41a5.76,5.76,0,0,1-11.52,0" transform="translate(-88.8 -91.72)"/><path class="cls-2" d="M503,261.45a5.76,5.76,0,0,1,11.52,0" transform="translate(-88.8 -91.72)"/><ellipse class="cls-1" cx="417.11" cy="167.57" rx="0.48" ry="0.72"/><ellipse class="cls-1" cx="419.99" cy="166.61" rx="0.48" ry="0.72"/><ellipse class="cls-1" cx="419.99" cy="172.85" rx="0.48" ry="0.72"/><ellipse class="cls-1" cx="422.87" cy="169.01" rx="0.48" ry="0.72"/><ellipse class="cls-1" cx="422.39" cy="174.29" rx="0.48" ry="0.72"/><ellipse class="cls-1" cx="416.63" cy="171.89" rx="0.48" ry="0.72"/><circle class="cls-1" cx="381.6" cy="171.17" r="7.68"/><path class="cls-2" d="M476.16,263.37a5.76,5.76,0,0,1-11.52,0" transform="translate(-88.8 -91.72)"/><path class="cls-2" d="M464.64,262.41a5.76,5.76,0,0,1,11.52,0" transform="translate(-88.8 -91.72)"/><ellipse class="cls-1" cx="378.72" cy="168.53" rx="0.48" ry="0.72"/><ellipse class="cls-1" cx="381.6" cy="167.57" rx="0.48" ry="0.72"/><ellipse class="cls-1" cx="381.6" cy="173.81" rx="0.48" ry="0.72"/><ellipse class="cls-1" cx="384.48" cy="169.97" rx="0.48" ry="0.72"/><ellipse class="cls-1" cx="384" cy="175.25" rx="0.48" ry="0.72"/><ellipse class="cls-1" cx="378.24" cy="172.85" rx="0.48" ry="0.72"/><circle class="cls-1" cx="398.88" cy="174.53" r="7.68"/><path class="cls-2" d="M493.44,266.73a5.76,5.76,0,0,1-11.52,0h0" transform="translate(-88.8 -91.72)"/><path class="cls-2" d="M481.92,265.77a5.76,5.76,0,0,1,11.52,0h0" transform="translate(-88.8 -91.72)"/><ellipse class="cls-1" cx="396" cy="171.89" rx="0.48" ry="0.72"/><ellipse class="cls-1" cx="398.88" cy="170.93" rx="0.48" ry="0.72"/><ellipse class="cls-1" cx="398.88" cy="177.16" rx="0.48" ry="0.72"/><ellipse class="cls-1" cx="401.76" cy="173.33" rx="0.48" ry="0.72"/><ellipse class="cls-1" cx="401.28" cy="178.6" rx="0.48" ry="0.72"/><ellipse class="cls-1" cx="395.52" cy="176.2" rx="0.48" ry="0.72"/><circle class="cls-4" cx="410.87" cy="182.68" r="7.68"/><path class="cls-2" d="M505.44,274.89a5.76,5.76,0,0,1-11.52,0" transform="translate(-88.8 -91.72)"/><path class="cls-2" d="M493.92,273.93a5.76,5.76,0,0,1,11.52,0h0" transform="translate(-88.8 -91.72)"/><ellipse class="cls-4" cx="407.99" cy="180.04" rx="0.48" ry="0.72"/><ellipse class="cls-4" cx="410.87" cy="179.08" rx="0.48" ry="0.72"/><ellipse class="cls-4" cx="410.87" cy="185.32" rx="0.48" ry="0.72"/><ellipse class="cls-4" cx="413.75" cy="181.48" rx="0.48" ry="0.72"/><ellipse class="cls-4" cx="413.27" cy="186.76" rx="0.48" ry="0.72"/><ellipse class="cls-4" cx="407.51" cy="184.36" rx="0.48" ry="0.72"/><circle class="cls-3" cx="312.13" cy="153.41" r="2.04"/><polygon class="cls-6" points="367.45 227.29 318.57 213.73 320.44 206.77 369.32 220.33 367.45 227.29"/><path class="cls-6" d="M449.09,316.69a134.92,134.92,0,0,1-50.67,0v-7.21a155,155,0,0,0,50.67,0Z" transform="translate(-88.8 -91.72)"/><path class="cls-6" d="M454.3,295.06a134.92,134.92,0,0,1-50.67,0v-7.21a155,155,0,0,0,50.67,0Z" transform="translate(-88.8 -91.72)"/><path class="cls-6" d="M471.82,303.71a134.92,134.92,0,0,1-50.67,0V296.5a155,155,0,0,0,50.67,0Z" transform="translate(-88.8 -91.72)"/><path class="cls-6" d="M476.08,311.88a134.92,134.92,0,0,1-50.67,0v-7.21a155,155,0,0,0,50.67,0Z" transform="translate(-88.8 -91.72)"/><polygon class="cls-6" points="402.14 230.83 352.14 239.23 350.99 232.12 400.98 223.72 402.14 230.83"/><path class="cls-6" d="M483.48,323.48A136,136,0,0,1,437.43,345l-3-6.56a156,156,0,0,0,46.05-21.47Z" transform="translate(-88.8 -91.72)"/><path class="cls-6" d="M479.31,301.62a135.66,135.66,0,0,1-46,21.47l-3-6.55a156,156,0,0,0,46-21.47Z" transform="translate(-88.8 -91.72)"/><path class="cls-6" d="M498.79,302.05a135.68,135.68,0,0,1-46,21.48l-3-6.55a156.18,156.18,0,0,0,46.05-21.48Z" transform="translate(-88.8 -91.72)"/><path class="cls-6" d="M506,307.67a135.92,135.92,0,0,1-46,21.48l-3-6.55a156.13,156.13,0,0,0,46-21.48Z" transform="translate(-88.8 -91.72)"/><rect class="cls-7" x="354.24" y="201.88" width="2.4" height="2.4"/><rect class="cls-7" x="361.44" y="243.63" width="2.4" height="2.4"/><rect class="cls-7" x="323.05" y="201.88" width="2.4" height="2.4"/><rect class="cls-7" x="378.72" y="231.64" width="2.4" height="2.4"/><rect class="cls-7" x="380.16" y="217.72" width="2.4" height="2.4"/><rect class="cls-7" x="428.89" y="301.04" width="1.92" height="3.36" transform="translate(-150.8 396.74) rotate(-55.84)"/><rect class="cls-7" x="457.21" y="306.32" width="1.92" height="3.36" transform="translate(-142.75 422.49) rotate(-55.84)"/><rect class="cls-7" x="422.65" y="315.44" width="1.92" height="3.36" transform="translate(-165.45 397.9) rotate(-55.84)"/><rect class="cls-7" x="441.61" y="314.24" width="3.36" height="1.92" transform="translate(-155.23 413.34) rotate(-55.84)"/><rect class="cls-7" x="454.57" y="317.6" width="3.36" height="1.92" transform="translate(-152.33 425.53) rotate(-55.84)"/><rect class="cls-7" x="489.12" y="306.08" width="3.36" height="1.92" transform="translate(-127.64 449.08) rotate(-55.84)"/><path class="cls-1" d="M271.81,291.2h-24.4V212.42c0-8.71-6.44-15.78-14.39-15.78H227.3c-7.94,0-14.39,7.07-14.39,15.78h0V291.2H144.09c-4.54,0-8.22-4-8.22-9a9.74,9.74,0,0,1,.95-4.2l72.85-151.16c3.71-7.71,1-17.25-6-21.32l-.58-.32-4.3-2.23c-6.94-3.59-15.22-.58-18.84,6.83L91.11,292A23.1,23.1,0,0,0,88.8,302.1h0c0,11.81,8.74,21.39,19.52,21.39H212.91V373.3c0,10.45,7.73,18.91,17.25,18.91h0c9.53,0,17.25-8.46,17.25-18.91h0V323.49h24.4c8.13,0,14.73-7.23,14.73-16.15h0c0-8.91-6.6-16.14-14.73-16.14Z" transform="translate(-88.8 -91.72)"/><path class="cls-1" d="M781.65,291.2h-24.4V212.42c0-8.71-6.44-15.78-14.39-15.78h-5.72c-7.94,0-14.39,7.07-14.39,15.78h0V291.2H653.93c-4.54,0-8.22-4-8.22-9a9.74,9.74,0,0,1,.95-4.2l72.85-151.16c3.71-7.71,1-17.25-6-21.32-.19-.11-.38-.22-.58-.32l-4.3-2.23c-6.93-3.59-15.22-.58-18.83,6.83L601,292a23.1,23.1,0,0,0-2.3,10.09h0c0,11.81,8.73,21.39,19.51,21.39H722.75V373.3c0,10.45,7.73,18.91,17.25,18.91h0c9.53,0,17.25-8.46,17.25-18.91h0V323.49h24.4c8.14,0,14.73-7.23,14.73-16.15h0c0-8.91-6.59-16.14-14.73-16.14Z" transform="translate(-88.8 -91.72)"/><path class="cls-8" d="M278.54,282h-24.4V203.2c0-8.72-6.44-15.78-14.39-15.78H234c-7.94,0-14.39,7.06-14.39,15.78h0V282H150.82c-4.54,0-8.22-4-8.22-9a9.79,9.79,0,0,1,1-4.21L216.4,117.6c3.71-7.7,1-17.25-6-21.32l-.58-.32-4.3-2.22c-6.93-3.59-15.22-.59-18.83,6.83L97.84,282.78a23.13,23.13,0,0,0-2.3,10.09h0c0,11.82,8.73,21.39,19.51,21.39H219.64v49.82c0,10.44,7.73,18.91,17.25,18.91h0c9.53,0,17.25-8.47,17.25-18.91h0V314.26h24.4c8.14,0,14.73-7.22,14.73-16.14h0C293.27,289.2,286.68,282,278.54,282Z" transform="translate(-88.8 -91.72)"/><path class="cls-8" d="M794.28,282H769.87V203.2c0-8.72-6.44-15.78-14.39-15.78h-5.71c-7.95,0-14.39,7.06-14.39,15.78h0V282H666.55c-4.54,0-8.22-4-8.22-9a9.65,9.65,0,0,1,1-4.21L732.13,117.6c3.71-7.7,1-17.25-6-21.32l-.58-.32-4.3-2.22c-6.93-3.59-15.22-.59-18.83,6.83L613.57,282.78a23.13,23.13,0,0,0-2.3,10.09h0c0,11.82,8.73,21.39,19.51,21.39h104.6v49.82c0,10.44,7.72,18.91,17.24,18.91h0c9.53,0,17.25-8.47,17.25-18.91h0V314.26h24.41c8.13,0,14.72-7.22,14.72-16.14h0c0-8.92-6.59-16.14-14.72-16.14Z" transform="translate(-88.8 -91.72)"/></svg>